<svg xmlns="http://www.w3.org/2000/svg" viewBox="0 0 40 40" fill="none">
  <!-- Dark background -->
  <rect width="40" height="40" rx="8" fill="#080809"/>
  <!-- Ear left -->
  <ellipse cx="9.5" cy="10" rx="5.2" ry="5.2" fill="#c9a84c" opacity="0.15"/>
  <ellipse cx="9.5" cy="10" rx="5.2" ry="5.2" stroke="#c9a84c" stroke-width="1.1"/>
  <ellipse cx="9.5" cy="10" rx="2.5" ry="2.5" fill="#c9a84c" opacity="0.35"/>
  <!-- Ear right -->
  <ellipse cx="30.5" cy="10" rx="5.2" ry="5.2" fill="#c9a84c" opacity="0.15"/>
  <ellipse cx="30.5" cy="10" rx="5.2" ry="5.2" stroke="#c9a84c" stroke-width="1.1"/>
  <ellipse cx="30.5" cy="10" rx="2.5" ry="2.5" fill="#c9a84c" opacity="0.35"/>
  <!-- Head -->
  <ellipse cx="20" cy="22" rx="13.5" ry="12.5" fill="#c9a84c" opacity="0.08"/>
  <ellipse cx="20" cy="22" rx="13.5" ry="12.5" stroke="#c9a84c" stroke-width="1.1"/>
  <!-- Snout -->
  <ellipse cx="20" cy="26.5" rx="5.5" ry="3.8" fill="#c9a84c" opacity="0.18"/>
  <ellipse cx="20" cy="26.5" rx="5.5" ry="3.8" stroke="#c9a84c" stroke-width="0.9"/>
  <!-- Nose -->
  <ellipse cx="20" cy="24.8" rx="1.6" ry="1.1" fill="#c9a84c"/>
  <!-- Eye left -->
  <circle cx="14.8" cy="19.5" r="1.5" fill="#c9a84c"/>
  <!-- Eye right -->
  <circle cx="25.2" cy="19.5" r="1.5" fill="#c9a84c"/>
  <!-- Brow left -->
  <line x1="12.5" y1="16.5" x2="17" y2="17.2" stroke="#c9a84c" stroke-width="0.9" stroke-linecap="round" opacity="0.7"/>
  <!-- Brow right -->
  <line x1="23" y1="17.2" x2="27.5" y2="16.5" stroke="#c9a84c" stroke-width="0.9" stroke-linecap="round" opacity="0.7"/>
</svg>
